<?xml version="1.0" encoding="UTF-8"?>
<svg xmlns="http://www.w3.org/2000/svg" xmlns:xlink="http://www.w3.org/1999/xlink" width="24px" height="24px" viewBox="0 0 24 24" version="1.1">
<g id="surface1">
<path style=" stroke:none;fill-rule:nonzero;fill:rgb(0%,0%,0%);fill-opacity:1;" d="M 20.484375 3.515625 C 18.21875 1.25 15.207031 0 12 0 C 8.792969 0 5.78125 1.25 3.515625 3.515625 C 1.25 5.78125 0 8.792969 0 12 C 0 15.207031 1.25 18.21875 3.515625 20.484375 C 5.78125 22.75 8.792969 24 12 24 C 15.207031 24 18.21875 22.75 20.484375 20.484375 C 22.75 18.21875 24 15.207031 24 12 C 24 8.792969 22.75 5.78125 20.484375 3.515625 Z M 21.21875 10.539062 L 16.5625 10.539062 C 16.46875 8.101562 16.144531 5.835938 15.621094 4.042969 C 15.546875 3.785156 15.46875 3.539062 15.386719 3.300781 C 18.425781 4.488281 20.695312 7.226562 21.21875 10.539062 Z M 12 20.96875 C 11.753906 20.601562 11.390625 19.84375 11.054688 18.46875 C 10.710938 17.042969 10.488281 15.304688 10.410156 13.460938 L 13.589844 13.460938 C 13.511719 15.304688 13.289062 17.042969 12.945312 18.46875 C 12.609375 19.84375 12.246094 20.601562 12 20.96875 Z M 10.410156 10.539062 C 10.488281 8.695312 10.710938 6.957031 11.054688 5.53125 C 11.390625 4.15625 11.753906 3.398438 12 3.03125 C 12.246094 3.398438 12.609375 4.15625 12.945312 5.53125 C 13.289062 6.957031 13.511719 8.695312 13.589844 10.539062 Z M 8.613281 3.300781 C 8.53125 3.539062 8.453125 3.785156 8.378906 4.042969 C 7.855469 5.835938 7.53125 8.101562 7.4375 10.539062 L 2.78125 10.539062 C 3.304688 7.226562 5.574219 4.488281 8.613281 3.300781 Z M 2.78125 13.460938 L 7.4375 13.460938 C 7.53125 15.898438 7.855469 18.164062 8.378906 19.957031 C 8.453125 20.214844 8.53125 20.460938 8.613281 20.699219 C 5.574219 19.511719 3.304688 16.773438 2.78125 13.460938 Z M 15.386719 20.699219 C 15.46875 20.460938 15.546875 20.214844 15.621094 19.957031 C 16.144531 18.164062 16.46875 15.898438 16.5625 13.460938 L 21.21875 13.460938 C 20.695312 16.773438 18.425781 19.511719 15.386719 20.699219 Z M 15.386719 20.699219 "/>
</g>
</svg>
