<?xml version="1.0" encoding="UTF-8"?>
<svg xmlns="http://www.w3.org/2000/svg" xmlns:xlink="http://www.w3.org/1999/xlink" width="12px" height="12px" viewBox="0 0 12 12" version="1.1">
<g id="surface1">
<path style=" stroke:none;fill-rule:nonzero;fill:rgb(0%,0%,0%);fill-opacity:1;" d="M 10.242188 1.757812 C 9.109375 0.625 7.601562 0 6 0 C 4.398438 0 2.890625 0.625 1.757812 1.757812 C 0.625 2.890625 0 4.398438 0 6 C 0 7.601562 0.625 9.109375 1.757812 10.242188 C 2.890625 11.375 4.398438 12 6 12 C 7.601562 12 9.109375 11.375 10.242188 10.242188 C 11.375 9.109375 12 7.601562 12 6 C 12 4.398438 11.375 2.890625 10.242188 1.757812 Z M 10.609375 5.269531 L 8.28125 5.269531 C 8.234375 4.050781 8.070312 2.917969 7.8125 2.019531 C 7.773438 1.890625 7.734375 1.769531 7.691406 1.652344 C 9.214844 2.246094 10.347656 3.613281 10.609375 5.269531 Z M 6 10.484375 C 5.878906 10.300781 5.695312 9.921875 5.527344 9.234375 C 5.355469 8.523438 5.246094 7.652344 5.207031 6.730469 L 6.792969 6.730469 C 6.753906 7.652344 6.644531 8.523438 6.472656 9.234375 C 6.304688 9.921875 6.121094 10.300781 6 10.484375 Z M 5.207031 5.269531 C 5.246094 4.347656 5.355469 3.476562 5.527344 2.765625 C 5.695312 2.078125 5.878906 1.699219 6 1.515625 C 6.121094 1.699219 6.304688 2.078125 6.472656 2.765625 C 6.644531 3.476562 6.753906 4.347656 6.792969 5.269531 Z M 4.308594 1.652344 C 4.265625 1.769531 4.226562 1.890625 4.1875 2.019531 C 3.929688 2.917969 3.765625 4.050781 3.71875 5.269531 L 1.390625 5.269531 C 1.652344 3.613281 2.785156 2.246094 4.308594 1.652344 Z M 1.390625 6.730469 L 3.71875 6.730469 C 3.765625 7.949219 3.929688 9.082031 4.1875 9.980469 C 4.226562 10.109375 4.265625 10.230469 4.308594 10.347656 C 2.785156 9.753906 1.652344 8.386719 1.390625 6.730469 Z M 7.691406 10.347656 C 7.734375 10.230469 7.773438 10.109375 7.8125 9.980469 C 8.070312 9.082031 8.234375 7.949219 8.28125 6.730469 L 10.609375 6.730469 C 10.347656 8.386719 9.214844 9.753906 7.691406 10.347656 Z M 7.691406 10.347656 "/>
</g>
</svg>
