<?xml version="1.0" encoding="UTF-8"?>
<svg xmlns="http://www.w3.org/2000/svg" xmlns:xlink="http://www.w3.org/1999/xlink" width="30px" height="30px" viewBox="0 0 30 30" version="1.1">
<g id="surface1">
<path style=" stroke:none;fill-rule:nonzero;fill:rgb(18.039216%,78.431373%,40%);fill-opacity:1;" d="M 23.496094 9.769531 C 22.824219 8.613281 14.589844 3.839844 13.246094 3.839844 C 11.90625 3.839844 3.664062 8.601562 2.996094 9.769531 C 2.328125 10.9375 2.324219 20.457031 2.996094 21.625 C 3.667969 22.792969 11.90625 27.550781 13.246094 27.550781 C 14.585938 27.550781 22.824219 22.785156 23.496094 21.625 C 24.167969 20.460938 24.167969 10.921875 23.496094 9.769531 Z M 16.023438 23.023438 C 15.839844 23.023438 14.128906 21.367188 14.265625 21.230469 C 14.304688 21.191406 14.554688 21.164062 15.078125 21.148438 C 15.078125 19.933594 15.105469 17.96875 15.121094 17.148438 C 15.121094 17.054688 15.101562 16.988281 15.101562 16.878906 L 11.398438 16.878906 C 11.398438 17.207031 11.378906 18.554688 11.460938 20.253906 C 11.472656 20.464844 11.386719 20.527344 11.195312 20.527344 C 10.726562 20.527344 10.257812 20.523438 9.789062 20.523438 C 9.597656 20.523438 9.515625 20.453125 9.523438 20.242188 C 9.5625 18.691406 9.660156 16.351562 9.515625 10.394531 L 9.515625 10.246094 C 9.066406 10.230469 8.757812 10.203125 8.714844 10.160156 C 8.582031 10.027344 10.316406 8.367188 10.496094 8.367188 C 10.679688 8.367188 12.40625 10.027344 12.269531 10.160156 C 12.230469 10.199219 11.90625 10.230469 11.492188 10.246094 L 11.492188 10.390625 C 11.382812 11.585938 11.398438 14.078125 11.371094 15.273438 L 15.089844 15.273438 C 15.089844 15.0625 15.105469 13.664062 15.035156 11.398438 C 15.027344 11.242188 15.078125 11.160156 15.226562 11.160156 C 15.742188 11.15625 16.253906 11.152344 16.765625 11.15625 C 16.925781 11.15625 16.980469 11.234375 16.976562 11.40625 C 16.804688 20.265625 16.945312 19.644531 16.945312 21.144531 C 17.355469 21.164062 17.722656 21.191406 17.765625 21.230469 C 17.898438 21.367188 16.207031 23.023438 16.023438 23.023438 Z M 16.023438 23.023438 "/>
</g>
</svg>
