<?xml version="1.0" encoding="UTF-8"?>
<svg xmlns="http://www.w3.org/2000/svg" xmlns:xlink="http://www.w3.org/1999/xlink" width="50px" height="50px" viewBox="0 0 50 50" version="1.1">
<g id="surface1">
<path style=" stroke:none;fill-rule:nonzero;fill:rgb(18.039216%,78.431373%,40%);fill-opacity:1;" d="M 39.160156 16.28125 C 38.042969 14.355469 24.3125 6.402344 22.078125 6.402344 C 19.84375 6.402344 6.105469 14.335938 4.996094 16.28125 C 3.882812 18.226562 3.875 34.09375 4.996094 36.039062 C 6.113281 37.984375 19.84375 45.917969 22.078125 45.917969 C 24.3125 45.917969 38.042969 37.976562 39.160156 36.039062 C 40.277344 34.105469 40.277344 18.207031 39.160156 16.28125 Z M 26.707031 38.371094 C 26.402344 38.371094 23.546875 35.609375 23.773438 35.386719 C 23.839844 35.320312 24.257812 35.273438 25.128906 35.246094 C 25.128906 33.21875 25.171875 29.949219 25.199219 28.582031 C 25.203125 28.425781 25.167969 28.316406 25.167969 28.128906 L 18.996094 28.128906 C 18.996094 28.679688 18.960938 30.925781 19.101562 33.753906 C 19.121094 34.105469 18.980469 34.214844 18.660156 34.214844 C 17.878906 34.210938 17.09375 34.207031 16.3125 34.207031 C 15.996094 34.207031 15.859375 34.089844 15.871094 33.734375 C 15.941406 31.15625 16.097656 27.25 15.859375 17.320312 L 15.859375 17.078125 C 15.113281 17.050781 14.59375 17.003906 14.527344 16.933594 C 14.300781 16.710938 17.191406 13.949219 17.496094 13.949219 C 17.800781 13.949219 20.675781 16.710938 20.449219 16.933594 C 20.382812 17 19.839844 17.050781 19.15625 17.078125 L 19.15625 17.320312 C 18.96875 19.308594 19 23.464844 18.953125 25.457031 L 25.148438 25.457031 C 25.148438 25.105469 25.179688 22.773438 25.054688 19 C 25.046875 18.738281 25.128906 18.601562 25.378906 18.597656 C 26.234375 18.589844 27.089844 18.589844 27.945312 18.59375 C 28.210938 18.59375 28.296875 18.726562 28.292969 19.007812 C 28.011719 33.773438 28.242188 32.742188 28.242188 35.242188 C 28.925781 35.269531 29.539062 35.316406 29.605469 35.386719 C 29.828125 35.609375 27.011719 38.371094 26.707031 38.371094 Z M 26.707031 38.371094 "/>
</g>
</svg>
