<?xml version="1.0" encoding="UTF-8"?>
<svg xmlns="http://www.w3.org/2000/svg" xmlns:xlink="http://www.w3.org/1999/xlink" width="100px" height="100px" viewBox="0 0 100 100" version="1.1">
<g id="surface1">
<path style=" stroke:none;fill-rule:nonzero;fill:rgb(18.039216%,78.431373%,40%);fill-opacity:1;" d="M 78.324219 32.558594 C 76.085938 28.707031 48.628906 12.800781 44.15625 12.800781 C 39.683594 12.800781 12.214844 28.667969 9.992188 32.558594 C 7.765625 36.453125 7.753906 68.1875 9.992188 72.082031 C 12.226562 75.972656 39.6875 91.839844 44.15625 91.839844 C 48.621094 91.839844 76.085938 75.949219 78.320312 72.078125 C 80.558594 68.207031 80.558594 36.410156 78.324219 32.558594 Z M 53.414062 76.742188 C 52.800781 76.742188 47.097656 71.222656 47.546875 70.769531 C 47.679688 70.636719 48.511719 70.542969 50.253906 70.488281 C 50.253906 66.441406 50.347656 59.902344 50.402344 57.164062 C 50.40625 56.851562 50.332031 56.632812 50.332031 56.261719 L 37.996094 56.261719 C 37.996094 57.355469 37.921875 61.847656 38.207031 67.511719 C 38.242188 68.210938 37.960938 68.429688 37.320312 68.429688 C 35.753906 68.421875 34.191406 68.410156 32.625 68.414062 C 31.992188 68.417969 31.71875 68.179688 31.738281 67.472656 C 31.882812 62.3125 32.195312 54.503906 31.714844 34.644531 L 31.714844 34.152344 C 30.222656 34.097656 29.1875 34.003906 29.050781 33.871094 C 28.601562 33.417969 34.382812 27.898438 34.992188 27.898438 C 35.605469 27.898438 41.347656 33.421875 40.902344 33.871094 C 40.765625 34.003906 39.679688 34.097656 38.3125 34.152344 L 38.3125 34.640625 C 37.9375 38.617188 38 46.925781 37.90625 50.910156 L 50.296875 50.910156 C 50.296875 50.207031 50.355469 45.546875 50.109375 38 C 50.09375 37.476562 50.257812 37.199219 50.761719 37.195312 C 52.46875 37.183594 54.179688 37.175781 55.890625 37.1875 C 56.425781 37.191406 56.59375 37.453125 56.585938 38.015625 C 56.019531 67.546875 56.484375 65.484375 56.484375 70.488281 C 57.851562 70.542969 59.078125 70.636719 59.214844 70.769531 C 59.660156 71.222656 54.023438 76.742188 53.414062 76.742188 Z M 53.414062 76.742188 "/>
</g>
</svg>
