<?xml version="1.0" encoding="UTF-8"?>
<svg xmlns="http://www.w3.org/2000/svg" xmlns:xlink="http://www.w3.org/1999/xlink" width="14px" height="14px" viewBox="0 0 14 14" version="1.1">
<g id="surface1">
<path style=" stroke:none;fill-rule:nonzero;fill:rgb(18.039216%,78.431373%,40%);fill-opacity:1;" d="M 10.964844 4.558594 C 10.652344 4.019531 6.808594 1.792969 6.183594 1.792969 C 5.554688 1.792969 1.710938 4.011719 1.398438 4.558594 C 1.085938 5.101562 1.085938 9.546875 1.398438 10.089844 C 1.710938 10.636719 5.554688 12.855469 6.183594 12.855469 C 6.808594 12.855469 10.652344 10.632812 10.964844 10.089844 C 11.277344 9.550781 11.277344 5.097656 10.964844 4.558594 Z M 7.476562 10.746094 C 7.390625 10.746094 6.59375 9.972656 6.65625 9.90625 C 6.675781 9.890625 6.792969 9.875 7.035156 9.867188 C 7.035156 9.300781 7.046875 8.386719 7.054688 8.003906 C 7.058594 7.960938 7.046875 7.929688 7.046875 7.875 L 5.320312 7.875 C 5.320312 8.03125 5.308594 8.660156 5.347656 9.453125 C 5.355469 9.550781 5.316406 9.582031 5.226562 9.578125 C 5.003906 9.578125 4.785156 9.578125 4.566406 9.578125 C 4.480469 9.578125 4.441406 9.546875 4.445312 9.445312 C 4.464844 8.722656 4.507812 7.628906 4.441406 4.851562 L 4.441406 4.78125 C 4.230469 4.773438 4.085938 4.761719 4.066406 4.742188 C 4.003906 4.679688 4.8125 3.90625 4.898438 3.90625 C 4.984375 3.90625 5.789062 4.679688 5.726562 4.742188 C 5.707031 4.761719 5.554688 4.773438 5.363281 4.78125 L 5.363281 4.851562 C 5.3125 5.40625 5.320312 6.570312 5.308594 7.128906 L 7.042969 7.128906 C 7.042969 7.027344 7.050781 6.375 7.015625 5.320312 C 7.011719 5.246094 7.035156 5.207031 7.105469 5.207031 C 7.34375 5.207031 7.585938 5.203125 7.824219 5.207031 C 7.898438 5.207031 7.921875 5.242188 7.921875 5.324219 C 7.84375 9.457031 7.90625 9.167969 7.90625 9.867188 C 8.097656 9.875 8.269531 9.890625 8.289062 9.90625 C 8.351562 9.972656 7.5625 10.746094 7.476562 10.746094 Z M 7.476562 10.746094 "/>
</g>
</svg>
