<?xml version="1.0" encoding="UTF-8"?>
<svg xmlns="http://www.w3.org/2000/svg" xmlns:xlink="http://www.w3.org/1999/xlink" width="200px" height="200px" viewBox="0 0 200 200" version="1.1">
<g id="surface1">
<path style=" stroke:none;fill-rule:nonzero;fill:rgb(18.039216%,78.431373%,40%);fill-opacity:1;" d="M 156.648438 65.121094 C 152.171875 57.417969 97.253906 25.601562 88.3125 25.601562 C 79.371094 25.601562 24.429688 57.335938 19.980469 65.121094 C 15.53125 72.902344 15.507812 136.378906 19.980469 144.160156 C 24.453125 151.941406 79.375 183.675781 88.3125 183.675781 C 97.246094 183.675781 152.171875 151.902344 156.644531 144.160156 C 161.113281 136.414062 161.117188 72.824219 156.648438 65.121094 Z M 106.824219 153.488281 C 105.601562 153.488281 94.195312 142.445312 95.09375 141.542969 C 95.363281 141.273438 97.027344 141.085938 100.511719 140.976562 C 100.511719 132.878906 100.695312 119.800781 100.800781 114.328125 C 100.816406 113.703125 100.664062 113.269531 100.664062 112.519531 L 75.988281 112.519531 C 75.988281 114.710938 75.847656 123.695312 76.410156 135.023438 C 76.480469 136.421875 75.921875 136.863281 74.640625 136.855469 C 71.511719 136.847656 68.382812 136.820312 65.25 136.832031 C 63.984375 136.835938 63.4375 136.359375 63.476562 134.945312 C 63.761719 124.621094 64.390625 109.003906 63.433594 69.285156 L 63.433594 68.304688 C 60.445312 68.199219 58.375 68.011719 58.101562 67.738281 C 57.203125 66.835938 68.765625 55.792969 69.988281 55.792969 C 71.210938 55.792969 82.699219 66.839844 81.800781 67.738281 C 81.535156 68.007812 79.363281 68.199219 76.625 68.304688 L 76.625 69.28125 C 75.878906 77.234375 75.996094 93.855469 75.8125 101.820312 L 100.589844 101.820312 C 100.589844 100.414062 100.710938 91.09375 100.222656 75.996094 C 100.191406 74.949219 100.515625 74.402344 101.519531 74.390625 C 104.9375 74.367188 108.359375 74.351562 111.78125 74.371094 C 112.847656 74.378906 113.191406 74.902344 113.167969 76.035156 C 112.042969 135.09375 112.964844 130.972656 112.964844 140.972656 C 115.703125 141.082031 118.160156 141.269531 118.429688 141.542969 C 119.316406 142.441406 108.046875 153.488281 106.824219 153.488281 Z M 106.824219 153.488281 "/>
</g>
</svg>
