<?xml version="1.0" encoding="UTF-8"?>
<svg xmlns="http://www.w3.org/2000/svg" xmlns:xlink="http://www.w3.org/1999/xlink" width="26px" height="26px" viewBox="0 0 26 26" version="1.1">
<g id="surface1">
<path style=" stroke:none;fill-rule:nonzero;fill:rgb(18.039216%,78.431373%,40%);fill-opacity:1;" d="M 20.363281 8.464844 C 19.78125 7.464844 12.644531 3.328125 11.480469 3.328125 C 10.316406 3.328125 3.175781 7.453125 2.597656 8.464844 C 2.019531 9.476562 2.015625 17.730469 2.597656 18.742188 C 3.179688 19.753906 10.320312 23.878906 11.480469 23.878906 C 12.640625 23.878906 19.78125 19.746094 20.363281 18.742188 C 20.945312 17.734375 20.945312 9.46875 20.363281 8.464844 Z M 13.886719 19.953125 C 13.726562 19.953125 12.246094 18.519531 12.363281 18.402344 C 12.398438 18.367188 12.613281 18.339844 13.066406 18.328125 C 13.066406 17.273438 13.089844 15.574219 13.105469 14.863281 C 13.105469 14.78125 13.085938 14.726562 13.085938 14.628906 L 9.878906 14.628906 C 9.878906 14.914062 9.859375 16.082031 9.933594 17.554688 C 9.941406 17.734375 9.871094 17.792969 9.703125 17.792969 C 9.296875 17.789062 8.890625 17.785156 8.484375 17.789062 C 8.316406 17.789062 8.246094 17.726562 8.253906 17.542969 C 8.289062 16.199219 8.371094 14.171875 8.246094 9.007812 L 8.246094 8.878906 C 7.859375 8.867188 7.589844 8.839844 7.554688 8.804688 C 7.4375 8.6875 8.941406 7.253906 9.097656 7.253906 C 9.257812 7.253906 10.75 8.6875 10.632812 8.804688 C 10.597656 8.839844 10.316406 8.867188 9.960938 8.878906 L 9.960938 9.007812 C 9.863281 10.039062 9.878906 12.199219 9.855469 13.238281 L 13.078125 13.238281 C 13.078125 13.054688 13.09375 11.84375 13.027344 9.878906 C 13.023438 9.742188 13.066406 9.671875 13.199219 9.671875 C 13.640625 9.667969 14.085938 9.664062 14.53125 9.667969 C 14.671875 9.667969 14.714844 9.738281 14.710938 9.882812 C 14.566406 17.5625 14.683594 17.027344 14.683594 18.328125 C 15.042969 18.339844 15.359375 18.363281 15.394531 18.402344 C 15.511719 18.515625 14.046875 19.953125 13.886719 19.953125 Z M 13.886719 19.953125 "/>
</g>
</svg>
