<?xml version="1.0" encoding="UTF-8"?>
<svg xmlns="http://www.w3.org/2000/svg" xmlns:xlink="http://www.w3.org/1999/xlink" width="35px" height="35px" viewBox="0 0 35 35" version="1.1">
<g id="surface1">
<path style=" stroke:none;fill-rule:nonzero;fill:rgb(18.039216%,78.431373%,40%);fill-opacity:1;" d="M 27.414062 11.394531 C 26.628906 10.046875 17.019531 4.480469 15.453125 4.480469 C 13.890625 4.480469 4.273438 10.035156 3.496094 11.394531 C 2.71875 12.757812 2.714844 23.867188 3.496094 25.226562 C 4.28125 26.589844 13.890625 32.144531 15.453125 32.144531 C 17.019531 32.144531 26.628906 26.582031 27.414062 25.226562 C 28.195312 23.871094 28.195312 12.746094 27.414062 11.394531 Z M 18.695312 26.859375 C 18.480469 26.859375 16.484375 24.929688 16.640625 24.769531 C 16.6875 24.722656 16.980469 24.691406 17.589844 24.671875 C 17.589844 23.253906 17.621094 20.964844 17.640625 20.007812 C 17.644531 19.898438 17.617188 19.820312 17.617188 19.691406 L 13.296875 19.691406 C 13.296875 20.074219 13.273438 21.648438 13.371094 23.628906 C 13.382812 23.875 13.285156 23.949219 13.0625 23.949219 C 12.515625 23.949219 11.964844 23.945312 11.417969 23.945312 C 11.199219 23.945312 11.101562 23.863281 11.109375 23.617188 C 11.160156 21.808594 11.269531 19.074219 11.101562 12.125 L 11.101562 11.953125 C 10.578125 11.933594 10.214844 11.902344 10.167969 11.855469 C 10.011719 11.695312 12.035156 9.765625 12.246094 9.765625 C 12.460938 9.765625 14.472656 11.695312 14.316406 11.855469 C 14.269531 11.902344 13.886719 11.933594 13.410156 11.953125 L 13.410156 12.125 C 13.277344 13.515625 13.300781 16.425781 13.265625 17.820312 L 17.605469 17.820312 C 17.605469 17.574219 17.625 15.941406 17.539062 13.300781 C 17.535156 13.117188 17.589844 13.019531 17.765625 13.019531 C 18.363281 13.015625 18.964844 13.011719 19.5625 13.015625 C 19.75 13.015625 19.808594 13.109375 19.804688 13.304688 C 19.609375 23.640625 19.769531 22.921875 19.769531 24.671875 C 20.25 24.6875 20.679688 24.722656 20.726562 24.769531 C 20.878906 24.925781 18.910156 26.859375 18.695312 26.859375 Z M 18.695312 26.859375 "/>
</g>
</svg>
