<?xml version="1.0" encoding="UTF-8"?>
<svg xmlns="http://www.w3.org/2000/svg" xmlns:xlink="http://www.w3.org/1999/xlink" width="30px" height="20px" viewBox="0 0 25 17" version="1.1">
<defs>
<linearGradient id="linear0" gradientUnits="userSpaceOnUse" x1="-37.6312" y1="-37.5455" x2="11.3667" y2="11.412" gradientTransform="matrix(0.206003,0,0,-0.209951,14.796808,6.16677)">
<stop offset="0" style="stop-color:rgb(100%,83.529412%,12.941176%);stop-opacity:1;"/>
<stop offset="0.05" style="stop-color:rgb(100%,83.529412%,12.941176%);stop-opacity:1;"/>
<stop offset="0.501119" style="stop-color:rgb(96.078431%,0%,0%);stop-opacity:1;"/>
<stop offset="0.95" style="stop-color:rgb(72.54902%,0%,70.588235%);stop-opacity:1;"/>
<stop offset="0.950079" style="stop-color:rgb(72.54902%,0%,70.588235%);stop-opacity:1;"/>
<stop offset="1" style="stop-color:rgb(72.54902%,0%,70.588235%);stop-opacity:1;"/>
</linearGradient>
<linearGradient id="linear1" gradientUnits="userSpaceOnUse" x1="0.4867" y1="0.536" x2="49.5047" y2="49.554" gradientTransform="matrix(0.205919,0,0,-0.210037,6.944444,14.176181)">
<stop offset="0" style="stop-color:rgb(100%,83.529412%,12.941176%);stop-opacity:1;"/>
<stop offset="0.05" style="stop-color:rgb(100%,83.529412%,12.941176%);stop-opacity:1;"/>
<stop offset="0.501119" style="stop-color:rgb(96.078431%,0%,0%);stop-opacity:1;"/>
<stop offset="0.95" style="stop-color:rgb(72.54902%,0%,70.588235%);stop-opacity:1;"/>
<stop offset="0.950079" style="stop-color:rgb(72.54902%,0%,70.588235%);stop-opacity:1;"/>
<stop offset="1" style="stop-color:rgb(72.54902%,0%,70.588235%);stop-opacity:1;"/>
</linearGradient>
<linearGradient id="linear2" gradientUnits="userSpaceOnUse" x1="-12.5688" y1="-12.5305" x2="36.4315" y2="36.4816" gradientTransform="matrix(0.205894,0,0,-0.210062,9.635124,11.431688)">
<stop offset="0" style="stop-color:rgb(100%,83.529412%,12.941176%);stop-opacity:1;"/>
<stop offset="0.05" style="stop-color:rgb(100%,83.529412%,12.941176%);stop-opacity:1;"/>
<stop offset="0.501119" style="stop-color:rgb(96.078431%,0%,0%);stop-opacity:1;"/>
<stop offset="0.95" style="stop-color:rgb(72.54902%,0%,70.588235%);stop-opacity:1;"/>
<stop offset="0.950079" style="stop-color:rgb(72.54902%,0%,70.588235%);stop-opacity:1;"/>
<stop offset="1" style="stop-color:rgb(72.54902%,0%,70.588235%);stop-opacity:1;"/>
</linearGradient>
</defs>
<g id="surface1">
<path style=" stroke:none;fill-rule:nonzero;fill:url(#linear0);" d="M 16.132812 5.476562 C 16.132812 5.097656 15.832031 4.792969 15.464844 4.792969 C 15.097656 4.792969 14.796875 5.097656 14.796875 5.476562 C 14.796875 5.851562 15.097656 6.15625 15.464844 6.15625 C 15.832031 6.15625 16.132812 5.851562 16.132812 5.476562 "/>
<path style=" stroke:none;fill-rule:nonzero;fill:url(#linear1);" d="M 17.023438 10.789062 C 16.996094 11.34375 16.90625 11.640625 16.832031 11.839844 C 16.730469 12.105469 16.609375 12.296875 16.414062 12.492188 C 16.21875 12.691406 16.035156 12.8125 15.777344 12.917969 C 15.582031 12.992188 15.285156 13.085938 14.742188 13.113281 C 14.15625 13.140625 13.984375 13.144531 12.5 13.144531 C 11.015625 13.144531 10.839844 13.140625 10.253906 13.113281 C 9.714844 13.085938 9.417969 12.992188 9.222656 12.917969 C 8.964844 12.8125 8.78125 12.691406 8.585938 12.492188 C 8.390625 12.296875 8.269531 12.105469 8.167969 11.839844 C 8.09375 11.640625 8 11.34375 7.976562 10.789062 C 7.949219 10.191406 7.945312 10.011719 7.945312 8.5 C 7.945312 6.984375 7.949219 6.808594 7.976562 6.210938 C 8 5.65625 8.09375 5.359375 8.167969 5.15625 C 8.269531 4.890625 8.390625 4.703125 8.585938 4.507812 C 8.78125 4.308594 8.964844 4.183594 9.222656 4.082031 C 9.417969 4.003906 9.714844 3.914062 10.253906 3.886719 C 10.839844 3.859375 11.015625 3.855469 12.5 3.855469 C 13.984375 3.855469 14.15625 3.859375 14.742188 3.886719 C 15.285156 3.914062 15.582031 4.003906 15.777344 4.082031 C 16.035156 4.183594 16.21875 4.308594 16.414062 4.507812 C 16.609375 4.703125 16.730469 4.890625 16.832031 5.15625 C 16.90625 5.359375 16.996094 5.65625 17.023438 6.210938 C 17.046875 6.808594 17.054688 6.984375 17.054688 8.5 C 17.054688 10.011719 17.046875 10.191406 17.023438 10.789062 Z M 18.023438 6.164062 C 17.996094 5.558594 17.902344 5.148438 17.761719 4.789062 C 17.621094 4.414062 17.433594 4.097656 17.121094 3.785156 C 16.8125 3.46875 16.503906 3.277344 16.140625 3.128906 C 15.785156 2.992188 15.382812 2.894531 14.789062 2.867188 C 14.199219 2.839844 14.007812 2.832031 12.5 2.832031 C 10.992188 2.832031 10.800781 2.839844 10.207031 2.867188 C 9.617188 2.894531 9.214844 2.992188 8.859375 3.128906 C 8.496094 3.277344 8.1875 3.46875 7.878906 3.785156 C 7.566406 4.097656 7.378906 4.414062 7.234375 4.789062 C 7.097656 5.148438 7.003906 5.558594 6.976562 6.164062 C 6.949219 6.769531 6.945312 6.960938 6.945312 8.5 C 6.945312 10.039062 6.949219 10.230469 6.976562 10.835938 C 7.003906 11.4375 7.097656 11.851562 7.234375 12.210938 C 7.378906 12.582031 7.566406 12.902344 7.878906 13.214844 C 8.1875 13.53125 8.496094 13.722656 8.859375 13.871094 C 9.214844 14.007812 9.617188 14.105469 10.207031 14.132812 C 10.800781 14.160156 10.992188 14.167969 12.5 14.167969 C 14.007812 14.167969 14.199219 14.160156 14.789062 14.132812 C 15.382812 14.105469 15.785156 14.007812 16.140625 13.871094 C 16.503906 13.722656 16.8125 13.53125 17.121094 13.214844 C 17.433594 12.902344 17.621094 12.582031 17.761719 12.210938 C 17.902344 11.851562 17.996094 11.4375 18.023438 10.835938 C 18.050781 10.230469 18.054688 10.039062 18.054688 8.5 C 18.054688 6.960938 18.050781 6.769531 18.023438 6.164062 Z M 18.023438 6.164062 "/>
<path style=" stroke:none;fill-rule:nonzero;fill:url(#linear2);" d="M 12.5 10.386719 C 11.476562 10.386719 10.648438 9.542969 10.648438 8.5 C 10.648438 7.457031 11.476562 6.609375 12.5 6.609375 C 13.523438 6.609375 14.351562 7.457031 14.351562 8.5 C 14.351562 9.542969 13.523438 10.386719 12.5 10.386719 Z M 12.5 5.589844 C 10.921875 5.589844 9.648438 6.894531 9.648438 8.5 C 9.648438 10.105469 10.921875 11.410156 12.5 11.410156 C 14.074219 11.410156 15.351562 10.105469 15.351562 8.5 C 15.351562 6.894531 14.074219 5.589844 12.5 5.589844 Z M 12.5 5.589844 "/>
</g>
</svg>
