<?xml version="1.0" encoding="UTF-8"?>
<svg xmlns="http://www.w3.org/2000/svg" xmlns:xlink="http://www.w3.org/1999/xlink" width="30px" height="20px" viewBox="0 0 30 20" version="1.1">
<defs>
<linearGradient id="linear0" gradientUnits="userSpaceOnUse" x1="-37.6312" y1="-37.5455" x2="11.3667" y2="11.412" gradientTransform="matrix(0.247204,0,0,-0.247001,17.75617,7.255024)">
<stop offset="0" style="stop-color:rgb(100%,83.529412%,12.941176%);stop-opacity:1;"/>
<stop offset="0.05" style="stop-color:rgb(100%,83.529412%,12.941176%);stop-opacity:1;"/>
<stop offset="0.501119" style="stop-color:rgb(96.078431%,0%,0%);stop-opacity:1;"/>
<stop offset="0.95" style="stop-color:rgb(72.54902%,0%,70.588235%);stop-opacity:1;"/>
<stop offset="0.950079" style="stop-color:rgb(72.54902%,0%,70.588235%);stop-opacity:1;"/>
<stop offset="1" style="stop-color:rgb(72.54902%,0%,70.588235%);stop-opacity:1;"/>
</linearGradient>
<linearGradient id="linear1" gradientUnits="userSpaceOnUse" x1="0.4867" y1="0.536" x2="49.5047" y2="49.554" gradientTransform="matrix(0.247103,0,0,-0.247103,8.333333,16.67786)">
<stop offset="0" style="stop-color:rgb(100%,83.529412%,12.941176%);stop-opacity:1;"/>
<stop offset="0.05" style="stop-color:rgb(100%,83.529412%,12.941176%);stop-opacity:1;"/>
<stop offset="0.501119" style="stop-color:rgb(96.078431%,0%,0%);stop-opacity:1;"/>
<stop offset="0.95" style="stop-color:rgb(72.54902%,0%,70.588235%);stop-opacity:1;"/>
<stop offset="0.950079" style="stop-color:rgb(72.54902%,0%,70.588235%);stop-opacity:1;"/>
<stop offset="1" style="stop-color:rgb(72.54902%,0%,70.588235%);stop-opacity:1;"/>
</linearGradient>
<linearGradient id="linear2" gradientUnits="userSpaceOnUse" x1="-12.5688" y1="-12.5305" x2="36.4315" y2="36.4816" gradientTransform="matrix(0.247073,0,0,-0.247132,11.562148,13.449045)">
<stop offset="0" style="stop-color:rgb(100%,83.529412%,12.941176%);stop-opacity:1;"/>
<stop offset="0.05" style="stop-color:rgb(100%,83.529412%,12.941176%);stop-opacity:1;"/>
<stop offset="0.501119" style="stop-color:rgb(96.078431%,0%,0%);stop-opacity:1;"/>
<stop offset="0.95" style="stop-color:rgb(72.54902%,0%,70.588235%);stop-opacity:1;"/>
<stop offset="0.950079" style="stop-color:rgb(72.54902%,0%,70.588235%);stop-opacity:1;"/>
<stop offset="1" style="stop-color:rgb(72.54902%,0%,70.588235%);stop-opacity:1;"/>
</linearGradient>
</defs>
<g id="surface1">
<path style=" stroke:none;fill-rule:nonzero;fill:url(#linear0);" d="M 19.359375 6.441406 C 19.359375 6 19 5.640625 18.558594 5.640625 C 18.117188 5.640625 17.757812 6 17.757812 6.441406 C 17.757812 6.882812 18.117188 7.242188 18.558594 7.242188 C 19 7.242188 19.359375 6.882812 19.359375 6.441406 "/>
<path style=" stroke:none;fill-rule:nonzero;fill:url(#linear1);" d="M 20.425781 12.695312 C 20.394531 13.34375 20.289062 13.695312 20.195312 13.929688 C 20.074219 14.242188 19.929688 14.464844 19.695312 14.699219 C 19.464844 14.929688 19.242188 15.074219 18.929688 15.195312 C 18.695312 15.289062 18.34375 15.394531 17.691406 15.425781 C 16.988281 15.457031 16.78125 15.464844 15 15.464844 C 13.21875 15.464844 13.007812 15.457031 12.304688 15.425781 C 11.65625 15.394531 11.304688 15.289062 11.070312 15.195312 C 10.757812 15.074219 10.535156 14.929688 10.300781 14.699219 C 10.066406 14.464844 9.921875 14.242188 9.804688 13.929688 C 9.710938 13.695312 9.601562 13.34375 9.574219 12.695312 C 9.539062 11.992188 9.535156 11.78125 9.535156 10 C 9.535156 8.21875 9.539062 8.007812 9.574219 7.304688 C 9.601562 6.65625 9.710938 6.304688 9.804688 6.066406 C 9.921875 5.757812 10.066406 5.535156 10.300781 5.300781 C 10.535156 5.070312 10.757812 4.925781 11.070312 4.804688 C 11.304688 4.710938 11.65625 4.601562 12.304688 4.574219 C 13.007812 4.542969 13.21875 4.535156 15 4.535156 C 16.78125 4.535156 16.988281 4.542969 17.691406 4.574219 C 18.34375 4.601562 18.695312 4.710938 18.929688 4.804688 C 19.242188 4.925781 19.464844 5.070312 19.695312 5.300781 C 19.929688 5.535156 20.074219 5.757812 20.195312 6.066406 C 20.289062 6.304688 20.394531 6.65625 20.425781 7.304688 C 20.457031 8.007812 20.464844 8.21875 20.464844 10 C 20.464844 11.78125 20.457031 11.992188 20.425781 12.695312 Z M 21.625 7.25 C 21.59375 6.542969 21.480469 6.054688 21.316406 5.632812 C 21.144531 5.195312 20.917969 4.824219 20.546875 4.453125 C 20.175781 4.082031 19.804688 3.855469 19.367188 3.683594 C 18.941406 3.519531 18.457031 3.40625 17.75 3.375 C 17.039062 3.339844 16.8125 3.332031 15 3.332031 C 13.1875 3.332031 12.960938 3.339844 12.25 3.375 C 11.542969 3.40625 11.058594 3.519531 10.632812 3.683594 C 10.195312 3.855469 9.824219 4.082031 9.453125 4.453125 C 9.082031 4.824219 8.855469 5.195312 8.683594 5.632812 C 8.519531 6.054688 8.40625 6.542969 8.371094 7.25 C 8.339844 7.960938 8.332031 8.1875 8.332031 10 C 8.332031 11.8125 8.339844 12.039062 8.371094 12.75 C 8.40625 13.457031 8.519531 13.941406 8.683594 14.367188 C 8.855469 14.804688 9.082031 15.175781 9.453125 15.546875 C 9.824219 15.917969 10.195312 16.144531 10.632812 16.316406 C 11.058594 16.480469 11.542969 16.59375 12.25 16.625 C 12.960938 16.660156 13.1875 16.667969 15 16.667969 C 16.8125 16.667969 17.039062 16.660156 17.75 16.625 C 18.457031 16.59375 18.941406 16.480469 19.367188 16.316406 C 19.804688 16.144531 20.175781 15.917969 20.546875 15.546875 C 20.917969 15.175781 21.144531 14.804688 21.316406 14.367188 C 21.480469 13.941406 21.59375 13.457031 21.625 12.75 C 21.660156 12.039062 21.667969 11.8125 21.667969 10 C 21.667969 8.1875 21.660156 7.960938 21.625 7.25 Z M 21.625 7.25 "/>
<path style=" stroke:none;fill-rule:nonzero;fill:url(#linear2);" d="M 15 12.222656 C 13.773438 12.222656 12.777344 11.226562 12.777344 10 C 12.777344 8.773438 13.773438 7.777344 15 7.777344 C 16.226562 7.777344 17.222656 8.773438 17.222656 10 C 17.222656 11.226562 16.226562 12.222656 15 12.222656 Z M 15 6.574219 C 13.109375 6.574219 11.578125 8.109375 11.578125 10 C 11.578125 11.890625 13.109375 13.421875 15 13.421875 C 16.890625 13.421875 18.421875 11.890625 18.421875 10 C 18.421875 8.109375 16.890625 6.574219 15 6.574219 Z M 15 6.574219 "/>
</g>
</svg>
