<?xml version="1.0" encoding="UTF-8"?>
<svg xmlns="http://www.w3.org/2000/svg" xmlns:xlink="http://www.w3.org/1999/xlink" width="26px" height="17px" viewBox="0 0 25 17" version="1.1">
<g id="surface1">
<path style=" stroke:none;fill-rule:nonzero;fill:rgb(100%,0%,0%);fill-opacity:1;" d="M 20.054688 4.601562 C 19.875 3.90625 19.339844 3.359375 18.660156 3.171875 C 17.429688 2.832031 12.5 2.832031 12.5 2.832031 C 12.5 2.832031 7.570312 2.832031 6.339844 3.171875 C 5.660156 3.359375 5.125 3.90625 4.945312 4.601562 C 4.613281 5.867188 4.613281 8.5 4.613281 8.5 C 4.613281 8.5 4.613281 11.132812 4.945312 12.398438 C 5.125 13.09375 5.660156 13.640625 6.339844 13.828125 C 7.566406 14.167969 12.5 14.167969 12.5 14.167969 C 12.5 14.167969 17.429688 14.167969 18.660156 13.828125 C 19.339844 13.640625 19.875 13.09375 20.054688 12.398438 C 20.386719 11.132812 20.386719 8.5 20.386719 8.5 C 20.386719 8.5 20.386719 5.867188 20.054688 4.601562 "/>
<path style=" stroke:none;fill-rule:nonzero;fill:rgb(100%,100%,100%);fill-opacity:1;" d="M 10.886719 10.890625 L 15.007812 8.5 L 10.886719 6.109375 Z M 10.886719 10.890625 "/>
</g>
</svg>
